<svg xmlns="http://www.w3.org/2000/svg" id="Capa_1" data-name="Capa 1" viewBox="0 0 547.86 107.86"><defs><style>.cls-1{fill:#0078bc;}</style></defs><path class="cls-1" d="M53.21,50.54a8.33,8.33,0,0,0-4.57.69,3,3,0,0,0-1.71,2.66c0,1,.29,3.44.76,3.93s1.62,2,2.38,2a9.16,9.16,0,0,0,3.32-.59,10.6,10.6,0,0,0,1.53-1.57s1.23-2.27.85-3.55-1.42-3.24-2.56-3.54"></path><path class="cls-1" d="M58.21,45.61a10.81,10.81,0,0,0-7.28-2.15c-3.21.38-4.82.76-5.68,1.77a9.68,9.68,0,0,1-2.35,2.29c-.74.38-1.61,2.15-1.86,3.42a38.42,38.42,0,0,0,0,6.47,26.52,26.52,0,0,0,2,4.19,34,34,0,0,0,3.21,2.92c.5.25,1.49,1,1.86.89s5.55.25,5.92.25,1.36.26,1.86-.25a26.06,26.06,0,0,1,2.47-1.91,27,27,0,0,0,2-2.15,19.41,19.41,0,0,0,2-2.92c0-.38.84-4,.34-6.62a16.29,16.29,0,0,0-4.42-6.2M58.84,57s-.62,1.38-.74,1.75A27.75,27.75,0,0,1,54.79,62c-.62.5-2.71.13-3.69.25a9.26,9.26,0,0,1-4.54-1.5c-1-.75-1.6-2.5-2.09-4.38a9.45,9.45,0,0,1,1-5.62A10.59,10.59,0,0,1,48,48.08,8.71,8.71,0,0,1,51,47.45a17.1,17.1,0,0,1,4.05.38,6,6,0,0,1,2,1.5A8.18,8.18,0,0,1,59,54a15.25,15.25,0,0,1-.12,3"></path><path class="cls-1" d="M69.3,55.56s-.07-4.52-.73-5.8S65,42.67,63.83,41.84s-2.63-2.72-3.51-2.72-1.67-.75-2.33-1a17.8,17.8,0,0,0-4.67-1,38.88,38.88,0,0,0-5.55.23,9.57,9.57,0,0,0-3.5,1c-.65.52-1.31,1.5-1.82,1.73s-3.14,2-3.72,2.41S36.61,46,36,47.87a28.08,28.08,0,0,0-1,8.37,27.59,27.59,0,0,0,3,8.14A24.46,24.46,0,0,0,42.74,69a14.79,14.79,0,0,0,4.16,2c1.09.16,5.32.76,5.69.69a16.8,16.8,0,0,0,2-.61c.3-.15,3.29.08,3.8-.45a15.43,15.43,0,0,1,2.48-1.58,23,23,0,0,0,2.55-2.26,31.26,31.26,0,0,0,2.92-4,28.15,28.15,0,0,0,2-4.3c.3-1,.88-2.94.88-2.94m-4.38,2A18.1,18.1,0,0,0,64,59.43a3.31,3.31,0,0,0-.28,1.47c.07.29-2.56,2.79-2.92,3.16a5.51,5.51,0,0,0-.85,1.7c-.07.29-2.21,1.1-2.49,1.24s-2.63,1.11-3,1.33a13.34,13.34,0,0,1-3,0c-.79,0-4.13-1.11-4.77-1.18a2,2,0,0,1-1.49-.88c-.22-.44-1.5-1-2.92-2a12.46,12.46,0,0,1-3.41-5.08,70.69,70.69,0,0,1-.5-8.24c.07-1.54,1.42-3.16,2-3.9a34.07,34.07,0,0,1,3.34-3.9,17.6,17.6,0,0,1,5.12-2.06,18.62,18.62,0,0,1,4-.51c.85.07,1.56.88,2.34.95s2.92,1.4,4.13,1.91,3.34,3,4.19,4.2A13.14,13.14,0,0,1,65,52.8c.07,1.1.21,4.2-.07,4.79"></path><path class="cls-1" d="M98.8,44.63c-.55-.38-1-.92-1.85-.86s-1.76,0-2.65,0c-1.41,0-2.82,0-4.22,0-.79,0-1.58.1-2.37.15-.47,0-.95,0-1.42.06-.88.09-1.75.26-2.63.31-.73,0-1.48-.06-2.22-.07-.43,0-.87,0-1.3.07s-.78.13-1.17.19a2.5,2.5,0,0,1-.47,0c-.17,0-.33,0-.49,0-.7-.06-1.73,0-2.07-.49a1.91,1.91,0,0,1,0-1.5s0-.17.09-.2a1.84,1.84,0,0,1,.75-.33c1,0,1.94,0,2.9.1.66,0,1.31.18,2,.21,1.68.07,3.37.1,5.05.16.34,0,.68.11,1,.11a10.36,10.36,0,0,0,1.25-.1c.6-.08,1.14.16,1.78,0a20.21,20.21,0,0,1,3.57-.12c1.1,0,2.22.32,3.24-.45a1.5,1.5,0,0,0,.77-1.28c0-.39,0-.78-.08-1.18a.85.85,0,0,0-.88-.87c-.59-.05-1.17-.11-1.75-.19s-1-.15-1.55-.24c-.79-.14-1.56.37-2.36.07-.07,0-.16,0-.24,0-1,.08-2.11.18-3.16.24s-2.11.12-3.16.1c-.83,0-1.64.11-2.48,0a7.69,7.69,0,0,0-2.43.14c-.44.1-4.59.63-6.39.16-1.45-.38-.67-1.75-.57-1.86a2.33,2.33,0,0,1,1.31-.74,37.39,37.39,0,0,1,6.35,0,7.36,7.36,0,0,0,1.88.06,14.32,14.32,0,0,1,3-.09c1.49.11,3,.12,4.48.27a56.38,56.38,0,0,0,6.63,0,.76.76,0,0,0,.59-.36,1.64,1.64,0,0,0,.22-1.56c-.16-.31,0-.8-.57-.84,0,0-.07-.09-.1-.15a1.89,1.89,0,0,0-1.17-.88c-.38-.11-.77-.18-1.14-.31s-.46-.31-.71-.34A13.27,13.27,0,0,0,92.11,32c-.8,0-1.6.21-2.4.21a18.35,18.35,0,0,1-4.38-.16,4.43,4.43,0,0,0-1-.07c-.56,0-1.12-.06-1.68,0s-1.29.2-1.94.26-1.24.08-1.85.11a10.44,10.44,0,0,1-1.85,0,5.45,5.45,0,0,0-2.93.26c-.66-.3-2,0-2.58-.78a3.18,3.18,0,0,1-.4-2.09c0-.17,0-.34,0-.5.1-.62.13-1.26.23-1.88a19,19,0,0,0,.38-1.94c0-1.14,0-2.28,0-3.42,0-1.31,0-2.63,0-3.95,0-.95.09-1.9.17-2.85s.2-1.84.26-2.77.06-1.8.1-2.71c0-.23.15-.51.07-.69-.25-.54-.58-1-.88-1.56a.24.24,0,0,0-.08-.06c-.54-.52-1.19-.23-1.79-.25a.73.73,0,0,0-.75.61c-.15,1-.27,1.92-.34,2.89s-.06,2-.11,3c0,.62-.09,1.24-.1,1.87s0,1.2,0,1.8c0,.22-.09.43-.1.65,0,1.05,0,2.1,0,3.15,0,.78-.28,4.92-.32,5.7,0,.44-.09.88-.09,1.32a2.55,2.55,0,0,1-1.57,2.41c-.88.34-1.65.06-1.51-1.09.05-.46.06-.92.11-1.37.13-1.15.49-5.65.63-6.8.08-.64.18-1.28.27-1.92.11-.81.26-1.62.29-2.43,0-1.07-.05-2.15,0-3.22,0-1.3.13-2.6.29-3.88a3.2,3.2,0,0,0-.57-2.41,1.92,1.92,0,0,0-1.47-.63c-.5.23-1,.46-1.5.72-.2.11-.46.28-.5.46a3.73,3.73,0,0,0-.28,2.06c0,.12,0,.29-.1.43a3.47,3.47,0,0,0-.25.65c-.08.56-.1,1.12-.16,1.68-.12,1.23-.3,2.46-.38,3.7-.08,1,0,2.09-.09,3.13s.16,2.14-.35,3.14a.29.29,0,0,0,0,.13c0,.49,0,1,0,1.46a7.53,7.53,0,0,0-.09,1.41,4.45,4.45,0,0,1,.08,1.78c-.22.93-.47,1.4-1.44,1.4-.48,0-.61-.2-.65-.61a17,17,0,0,0-.26-1.72,13.22,13.22,0,0,1,.14-3.44c0-.72.19-1.43.22-2.15s-.06-1.75,0-2.62c.13-2,.35-4,.46-5.94a26,26,0,0,0,.1-5.07.72.72,0,0,0-.64-.72,1.42,1.42,0,0,1-.52-.19,2.12,2.12,0,0,0-2.4.32,5.06,5.06,0,0,0-1,3,16.44,16.44,0,0,0,.07,2.32c0,.42.09.85.07,1.27s-.15.82-.18,1.24c-.09,1.06-.16,2.13-.2,3.19s0,2.2,0,3.3c0,.87.05,1.75,0,2.62,0,.62-.09,1.24-.1,1.86a12.47,12.47,0,0,0,.09,1.62,5.18,5.18,0,0,1-.21,2.14,2.37,2.37,0,0,1-.85.19c-.06,0-.16-.14-.17-.23,0-.37-.05-.73-.07-1.09s-.06-1-.11-1.47c-.08-.81-.22-1.61-.26-2.42,0-1.26,0-2.51,0-3.77,0-1.06-.1-2.11-.12-3.17,0-.37.13-.73.13-1.1,0-1.49,0-3,0-4.47,0-.25.23-.5.24-.75.06-1.19.08-2.37.1-3.56,0-.12,0-.28-.08-.34a2.12,2.12,0,0,0-.63-.46,3.94,3.94,0,0,0-1.61-.42,6.3,6.3,0,0,0-1.76.76.42.42,0,0,0-.14.28,11.76,11.76,0,0,0-.11,1.18c0,.71,0,1.42,0,2.13s-.13,1.19-.19,1.78a24.52,24.52,0,0,0,0,4.11,17.44,17.44,0,0,1,0,1.77,9.69,9.69,0,0,0-.09,1.3,11.78,11.78,0,0,1,.15,2.91c-.11,1.26.15,2.73.06,4a5.33,5.33,0,0,0-.18,1.4c.11.55-.45.58-.79.86s-.49.17-.69-.14a5.14,5.14,0,0,1-.54-2.26c-.12-1.12-.12-2.25-.17-3.37,0-.71-.09-1.41-.1-2.12,0-1.45,0-2.9.05-4.35s0-2.72,0-4.08c0-1.55.07-3.1.12-4.65a1.47,1.47,0,0,1,.21-.63.47.47,0,0,0-.35-.74c-.76-.06-1.53-.09-2.29-.08-.19,0-.37.18-.56.28a2,2,0,0,0-.33.16c-.15.1-.4.22-.41.35-.11.89-.19,1.79-.22,2.68,0,.49.11,1,.11,1.47a8.62,8.62,0,0,1-.15,1,7.93,7.93,0,0,1-.13,1.9,7,7,0,0,0,0,2.41c0,1.26.38,2.52.48,3.8.13,1.67.14,3.35.19,5,0,.64,0,1.29,0,1.93a4.5,4.5,0,0,1-.3,2c-.35.73-1.08.9-1.55.25a2.41,2.41,0,0,1-.4-1.26c0-.67.15-1.34.14-2,0-1.33-.14-2.65-.18-4,0-1,0-2.06,0-3.1,0-.7.1-1.4.09-2.11,0-1.4-.09-2.79-.11-4.19,0-1.71,0-3.41,0-5.11a1.79,1.79,0,0,0-.82-1.61,2.09,2.09,0,0,0-.86-.2,1.65,1.65,0,0,0-.64.23c-.46.24-.93.48-1.38.74a.46.46,0,0,0-.21.3c0,.45,0,.91,0,1.36,0,.63,0,1.27,0,1.9s-.08,1.25-.06,1.88.13,1.39.18,2.09c.07.89.12,1.79.2,2.69s.23,2.09.33,3.14c.07.68.14,1.37.16,2.06a7.77,7.77,0,0,1-.1,2.16,9,9,0,0,0-.11,2.25c0,.88.28,3.2.32,4.09a.65.65,0,0,1-.44.65,1.44,1.44,0,0,1-.94,0c-.67-.11-.77-.17-.86-.84s-.3-2.76-.33-3.42c-.09-1.65-.56-3.26-.36-4.95a31.76,31.76,0,0,0,0-4.14c0-1.26-.12-2.52-.13-3.78s.08-2.27.09-3.41a11.3,11.3,0,0,0-.1-2.18A1.68,1.68,0,0,0,32.18,8,3.59,3.59,0,0,0,31,9.4a3.52,3.52,0,0,0-.13,2,9.38,9.38,0,0,1-.07,3c0,.61-.12,1.23-.11,1.84s.09,1.48.14,2.22c0,.4,0,.81,0,1.22,0,.79.05,1.59.07,2.39s0,1.46,0,2.19.14,1.69.21,2.53.11,1.51.17,2.26a3.6,3.6,0,0,0,.14,1.05l.12.3a3.09,3.09,0,0,1-1.12,2.82,5.8,5.8,0,0,1-3.27.64c-.42-.11-.84-.23-1.26-.31a2.09,2.09,0,0,0-.66,0,4.62,4.62,0,0,1-.88.19c-.46,0-.92-.16-1.38-.2-.66,0-1.33-.06-2-.1-.47,0-.95-.06-1.42-.12a10.17,10.17,0,0,0-1.81-.22A8.79,8.79,0,0,1,15,32.84c-1.14-.31-2.32-.41-3.49-.64A6.19,6.19,0,0,1,10,31.78a2.85,2.85,0,0,0-1.93-.08,1.71,1.71,0,0,0-.76.58,8.4,8.4,0,0,0-.53.87,2.06,2.06,0,0,0,.49,2.68,1.82,1.82,0,0,0,1.23.35c1.22,0,2.43.16,3.65.24a7.39,7.39,0,0,0,.94,0,5.65,5.65,0,0,1,.91-.11c.41,0,.82.14,1.23.2.22,0,.44,0,.66,0,.77.09,1.54.25,2.32.29s1.87,0,2.8,0a2.58,2.58,0,0,1,.38,0c.74.11,1.49.25,2.24.34.57.06,3.51,0,4.08.09,1.3.12,1.7.89,2,1.87.08.3-.05.51-.38.51-.56,0-1.11,0-1.67,0-1.3,0-5-.06-6.27-.1-1,0-2,0-3-.09s-2-.42-3-.51c-1.28-.11-2.57-.11-3.86-.12-.73,0-1.46.06-2.19.05a14.9,14.9,0,0,1-1.76-.14c-.76-.09-1.3.16-1.4.8a11.66,11.66,0,0,0,0,1.87.52.52,0,0,0,.22.39,7.58,7.58,0,0,0,1.21.43c.72.19,1.46.17,2.19.38a13.41,13.41,0,0,0,2.63.3c1.36.09,2.73.14,4.1.21.22,0,.44.06.66.08l.75,0c.09,0,.17-.07.25,0a9,9,0,0,0,1.13.22c.8,0,1.61,0,2.41,0,.37,0,.74.21,1.12.23a4,4,0,0,0,1.65-.07A2.23,2.23,0,0,1,26,43.53a3.66,3.66,0,0,1,1.86,1.53,2.79,2.79,0,0,1,.18.6,2.37,2.37,0,0,1-.57.14c-2-.06-4-.11-5.95-.2-.78,0-1.56-.23-2.35-.25-1.58-.05-3.17,0-4.75,0a30.51,30.51,0,0,1-5.14-.23,5,5,0,0,0-3.12.14c-.4.16-.74.27-.89.74a1.85,1.85,0,0,1-.47.8,2.92,2.92,0,0,0-.67,2.17.41.41,0,0,0,.25.28.47.47,0,0,1,.37.66c-.11.38.06.41.34.42l2.26.09h.87c1.41,0,2.81-.32,4.24-.2s2.59.15,3.88.2c.74,0,1.49,0,2.24,0,.51,0,1,0,1.54,0,.17,0,.33.2.5.2.62,0,1.24,0,1.86,0s1.24-.16,1.86-.16,1.28.11,1.92.17a1.46,1.46,0,0,1,1,.44c.27.3.26.79-.13.91a5.63,5.63,0,0,1-1.52.26c-1.64,0-3.27,0-4.91,0-1.45,0-2.9-.2-4.35-.26-.56,0-1.12.13-1.68.13s-1.15-.15-1.72-.14c-1.87,0-3.73-.31-5.59,0a2.57,2.57,0,0,0-2,1.18c-.18.32-.3.66-.47,1a.77.77,0,0,0,0,.89.7.7,0,0,1,.07.36c0,.79.51,1.57,1.53,1.37a2.19,2.19,0,0,1,.51,0c.75,0,1.5.14,2.24.14s1.38-.15,2.07-.14c1.26,0,2.51.09,3.77.14.38,0,.75,0,1.13.08s.51.12.77.13c.6,0,1.21,0,1.81,0s.93-.13,1.4-.16c1.29-.08,3.58-.14,4.88-.18a4.25,4.25,0,0,1,.92.13,6.08,6.08,0,0,1,.94.21,1.32,1.32,0,0,1,.5.44s-.16.33-.28.37a12.17,12.17,0,0,1-2,.4c-1.08.1-3.16.07-4.24.14-.66.05-1.32.25-2,.27-1.42,0-2.85,0-4.28,0-.75,0-1.48-.23-2.23-.26-1.05,0-2.1,0-3.15,0-.32,0-.68.18-.93.07-.9-.4-1.69.11-2.52.2-.06,0-.12.11-.14.18-.1.32-.08.59.41.67a1.49,1.49,0,0,0-.43,1.67A2,2,0,0,0,7.85,62.8c.81.07,1.59-.35,2.39,0,.09,0,.23,0,.36-.07a5.81,5.81,0,0,1,.72,0,4.26,4.26,0,0,1,.49.1c1.08.15,2.16-.13,3.23,0a.46.46,0,0,0,.19,0,2,2,0,0,1,.66-.12,6.68,6.68,0,0,0,1.73,0c.88,0,1.77,0,2.66,0,.68,0,1.37.16,2,.19.39,0,.78-.18,1.16-.15.54,0,1.06-.11,1.59-.11a9.93,9.93,0,0,1,1.73.1c.23,0,.42.35.63.54-.15.13-.28.34-.44.37-.81.17-1.63.3-2.45.42-1,.14-1.93.28-2.91.35-1.37.1-2.75.17-4.12.2-1.6,0-3.21,0-4.81,0-1.27,0-2.53-.06-3.8-.12a4.09,4.09,0,0,0-3.14,1.12c-.29.28-.19.52.07.75s.4.29.49.49c.54,1.09,1.68,1,2.61,1.34a3.6,3.6,0,0,0,.69,0c.21,0,.42-.12.62-.1.38,0,.75.15,1.13.18.74.06,1.48.07,2.21.13a10.62,10.62,0,0,0,1.09.16c.61,0,1.21-.1,1.82-.12.78,0,1.56,0,2.34,0l4-.1c.54,0,1.08,0,1.61,0,.75,0,3.43-.43,4.23-.11a1.42,1.42,0,0,1,.89.63,3.38,3.38,0,0,1-.91.53,11.81,11.81,0,0,1-1.79.2c-1.32.07-4.63.13-6,.2a1.85,1.85,0,0,0-.23,0c-.95.09-1.9.2-2.85.27-.38,0-.77-.09-1.15-.08-.67,0-1.34.1-2,.11-.33,0-.67-.13-1-.12-.58,0-1.15.09-1.73.14a.41.41,0,0,1-.19,0,6.79,6.79,0,0,0-3.2-.13c-.2,0-.4.27-.54.46s.14.26.16.3c-.12.41-.38.8-.29,1.08a4,4,0,0,0,.86,1.42,1.55,1.55,0,0,0,1,.32c1.09.09,2.18.14,3.27.18.83,0,1.67,0,2.5,0,.3,0,.6.15.91.16.81,0,1.62,0,2.43,0,1,0,2,0,3,0,.74,0,1.48-.25,2.23-.27s1.71,0,2.57,0a9.39,9.39,0,0,0,2.73.27c.23,0,.58,0,.95,0l.06,0a3.44,3.44,0,0,1,1.89,1,3.33,3.33,0,0,1,.69,1.89,3.84,3.84,0,0,0-.13.41,7.71,7.71,0,0,0-.11,1c-.21.74-.33,1.51-.48,2.27s-.33,1.56-.48,2.35c0,.19,0,.41,0,.61-.26,1.56-.54,3.13-.8,4.69-.15.91-.28,1.81-.4,2.73-.11.76-.21,1.53-.3,2.29a5.61,5.61,0,0,0,0,.71c0,.88.08,1.76.2,2.63a.8.8,0,0,0,.74.61,4.19,4.19,0,0,1,1.26.33c.76.35,1.18.27,1.39-.45A13.51,13.51,0,0,0,34,95.15c.19-1.34.38-2.68.58-4,.14-.94.34-1.87.44-2.81.06-.59-.07-1.19,0-1.78.05-.78.17-1.56.24-2.35a8,8,0,0,1,0-.84,12.32,12.32,0,0,1,.44-1.61c.14-.42.55-3.53.79-3.9s.61-.61.84-1a1,1,0,0,1,1.27-.44c.18.11.48.17.4.55-.11.59-.17,1.2-.24,1.81s-.39,4.15-.51,4.88c-.06.36-.3.7-.33,1.06-.11,1.13-.14,2.27-.24,3.41-.08.86-.23,1.72-.31,2.58-.13,1.41-.17,2.83-.37,4.23a5.67,5.67,0,0,0,.21,2.18c.07.27.2.51.3.8a2.93,2.93,0,0,0,.47.3,3.33,3.33,0,0,0,1.18.41,3.08,3.08,0,0,0,1.19-.33.92.92,0,0,0,.63-.77c.06-.57.15-1.15.21-1.73.07-.77.12-1.55.18-2.32.08-.94.14-1.88.23-2.81s.19-1.91.29-2.86A5.81,5.81,0,0,0,42,86.74c-.16-1.47.41-2.88.3-4.35a12.17,12.17,0,0,1,.13-1.46c0-.9.19-1.71,1.16-2.12a6.43,6.43,0,0,0,.82-.58.45.45,0,0,1,.36,0c.06,0,.08.18.08.28s0,.38,0,.56a7.62,7.62,0,0,1-.2,3.42,4.35,4.35,0,0,0-.24,1.35c0,.92,0,1.85,0,2.77-.13,1.84-.33,3.68-.49,5.52-.06.65-.1,1.31-.13,2a14,14,0,0,1-.12,2.6,2.59,2.59,0,0,0,.51,2.1c.06.11.16.29.26.3A4.36,4.36,0,0,0,46.82,99a2.91,2.91,0,0,0,.78-.59,1.84,1.84,0,0,0,.55-.74,5.71,5.71,0,0,0,.05-1.31c0-.41,0-.81,0-1.22a7.1,7.1,0,0,1,0-1.13c.15-1,.39-2,.51-3,.17-1.45.25-2.91.37-4.36l.27-3.56c0-.3,0-.6.08-.9.13-.91.33-1.82.39-2.74a1.25,1.25,0,0,1,.92-1.27c.38-.13.69,0,.68.27-.07,1.45-.15,2.9-.23,4.36,0,1-.17,2-.12,3a12.46,12.46,0,0,1-.4,4,14.71,14.71,0,0,0-.36,3.19c0,.69.09,1.38.1,2.08,0,.85-.06,1.71-.07,2.57,0,.63.48,1.48.92,1.57a13.68,13.68,0,0,0,1.43.21c.64.07,1.15,0,1.5-.73a3.08,3.08,0,0,0,.29-1.82,18.64,18.64,0,0,1-.17-3.33c0-.61.1-1.23.15-1.85.07-1,.1-1.9.2-2.84.13-1.36.3-2.72.47-4.07.13-1,.25-2,.44-3a2.05,2.05,0,0,0,0-1.1,2.43,2.43,0,0,1,.34-2c.14-.25.37-.64.89-.49.24.06,1.19.12,1.46,1a11,11,0,0,1-.11,3.69c-.07.69-.14,1.39-.18,2.08a19.62,19.62,0,0,1-.16,3.08,33.07,33.07,0,0,0-.56,6.19c-.05,1.28-.16,2.56-.22,3.84a2,2,0,0,0,.57,1.59,2.44,2.44,0,0,0,3.19.16,2.9,2.9,0,0,0,.86-1.09,5.12,5.12,0,0,0,0-1.47,1.12,1.12,0,0,1,0-.37,4.34,4.34,0,0,0,.19-1.75A13.18,13.18,0,0,1,62,92.27a6.53,6.53,0,0,0,0-1.92c-.06-.9-.19-1.8-.21-2.7s0-1.52.08-2.28c0-.38,0-.77,0-1.15l.09-2.49a.93.93,0,0,0,0-.13,4.72,4.72,0,0,1,0-3.27c.25-.51.46-.64,1-.46.26.08.32.18.17.44A1.35,1.35,0,0,0,63,79c.06.86.14,1.72.26,2.58a10,10,0,0,1,.22,2.73,5.84,5.84,0,0,0,0,1.32,19.61,19.61,0,0,0,.2,3.15,6.5,6.5,0,0,1,0,2,16.81,16.81,0,0,1-.27,1.73,4.39,4.39,0,0,0-.18.86c0,1.39,0,2.78,0,4.16a1.28,1.28,0,0,0,.09.51,1.84,1.84,0,0,0,1.82,1.29c.49,0,1.07.17,1.38-.44a5.12,5.12,0,0,0,.25-.53,8.24,8.24,0,0,0,.42-1.14A11.93,11.93,0,0,0,67.43,94c0-.83,0-1.67,0-2.5,0-1.41,0-2.82,0-4.23,0-.68,0-1.36,0-2,0-.87-.18-1.73-.19-2.59s.12-1.62.16-2.43,0-1.54,0-2.32c0-.41.28-.6.52-.81a.44.44,0,0,1,.41.1c.21.67.4,1.35.56,2a3.63,3.63,0,0,1,0,.56c0,.93.13,1.87.16,2.8s0,2,0,3c0,1.73.07,3.46,0,5.18a21,21,0,0,0,.14,4.12c0,.26.17.54-.25.62-.05,0-.09.18-.1.28a6.26,6.26,0,0,0,0,.75c0,.35,0,.75.55.77a.83.83,0,0,1,.33.18,1.48,1.48,0,0,0,2-.34,11.54,11.54,0,0,0,1-3,13.41,13.41,0,0,0-.16-3c-.05-.57-.21-1.14-.23-1.71s.12-1,.09-1.55a13.3,13.3,0,0,1-.1-2.53,25.45,25.45,0,0,0,0-3.6c0-.8-.07-1.61-.08-2.41a17.4,17.4,0,0,0-.29-2,3.8,3.8,0,0,1,2.19-3.62c.91-.24,1.87-.12,2.8-.28a6.58,6.58,0,0,0,.75-.18c.57,0,1.15-.15,1.72-.15.8,0,1.59.1,2.39.15l3.23.22c.22,0,.44.14.66.15.44,0,.88,0,1.32,0a6.7,6.7,0,0,1,.77-.08c.32,0,.63.15,1,.14.91,0,1.81-.16,2.71-.18a7.28,7.28,0,0,1,1.81.2,3,3,0,0,0,2.78-1.14c.33-.56.62-1.08-.1-1.57,0,0,0-.12-.05-.18a1.26,1.26,0,0,0-1.29-.82c-.86.07-1.71.19-2.57.25-.64,0-1.3,0-1.94,0a6.13,6.13,0,0,1-.86,0c-1-.16-1.91-.41-2.87-.51s-1.86,0-2.79,0a3.18,3.18,0,0,1-.62-.07l-2-.47c-.18,0-.35-.13-.52-.17-.5-.14-4.81-.27-5.31-.39a1.28,1.28,0,0,1-.94-.63.5.5,0,0,1,0-.43c0-.09.22-.15.35-.16.41,0,.82,0,1.23,0,.59,0,5,0,5.58.09s1.46.19,2.19.24c.89.06,1.79,0,2.67.12a16.08,16.08,0,0,0,3.4,0,18.49,18.49,0,0,1,4.27-.08,3,3,0,0,0,2.68-1,1.81,1.81,0,0,0,.45-1.1c0-.18,0-.39,0-.58a1.17,1.17,0,0,0-.89-1.29c-.21,0-.43.07-.64.06a32.42,32.42,0,0,1-4.06.15h-.1c-.5,0-1,0-1.5,0-1.29-.06-2.57-.17-3.86-.19s-2.31,0-3.47.06c-.41,0-.82-.07-1.23,0a4.25,4.25,0,0,1-2.92-.52c-.21-.14-.58-.12-.54-.54,0,0-.18-.09-.27-.15-.26-.16-.65-.26-.75-.5-.31-.71,0-1.17.77-1.27.11,0,.23,0,.33,0,.6-.18,1.16.18,1.77.11a33.7,33.7,0,0,1,4.14-.14c1.78,0,3.56.2,5.34.29,1.12.06,2.24.12,3.37.13a22.55,22.55,0,0,0,3-.13,4.32,4.32,0,0,0,1.32-.63c.62-.34,1.23-.69,1.08-1.56a3.84,3.84,0,0,1,0-.59,2.14,2.14,0,0,0-1-1.67A3.29,3.29,0,0,0,94.64,56a31.94,31.94,0,0,1-5.7-.2,26.89,26.89,0,0,0-3.48-.24c-3.09,0-6.18,0-9.32,0A2.61,2.61,0,0,1,76,53.81c.07-.18.29-.43.45-.44,1.15,0,2.31-.06,3.47,0s2.54.13,3.81.09a27.17,27.17,0,0,1,4.77.19c1.35.2,2.72.27,4.08.43a10.67,10.67,0,0,1,2.68.32,2.58,2.58,0,0,0,1.53,0,3.61,3.61,0,0,0,1-.76,1.13,1.13,0,0,0,.35-1.26A6.25,6.25,0,0,1,97.93,51a1.2,1.2,0,0,0-1-1.29,8.53,8.53,0,0,0-2.66-.14c-.12,0-.25.14-.36.13-.49,0-1-.12-1.46-.14-.77,0-1.54-.06-2.31-.05-1,0-2,0-3,.05a23.46,23.46,0,0,0-3.24.18,18.14,18.14,0,0,1-3,0c-.71,0-1.42-.14-2.14-.19a6.54,6.54,0,0,0-1.71,0c-.91.21-1.22-.9,0-.89.87-.1,1.72-.21,2.56-.28.53,0,1.07,0,1.6,0,1.12-.09,2.23-.25,3.34-.31C86,48,87.36,48,88.77,47.93c.51,0,1-.07,1.52-.1.74,0,1.48-.09,2.22-.09a15.1,15.1,0,0,0,1.77.06c.86-.13,1.7-.41,2.55-.61a4.14,4.14,0,0,0,1.61-.84c.54-.42.79-1.44.36-1.72M64.62,69.89a6.86,6.86,0,0,1-.76.53c-1.12.65-2.24,1.32-3.38,1.94a7.11,7.11,0,0,1-1.36.49c-1.14.35-2.28.71-3.43,1a12.21,12.21,0,0,1-1.37.2,18.9,18.9,0,0,1-4.81-.22,15.31,15.31,0,0,1-3-.75c-1-.36-2-.86-3-1.31a18,18,0,0,1-2-.93,17.2,17.2,0,0,1-1.64-1.2,11.37,11.37,0,0,1-1.07-.88c-.62-.6-1.2-1.24-1.79-1.86a9.62,9.62,0,0,1-1.84-3c-.43-1-1-2-1.34-3.08a13.94,13.94,0,0,1-.57-2.48c-.16-.95-.26-1.91-.38-2.87a2.62,2.62,0,0,1,0-.28h-.06c0-.55,0-1.1,0-1.65.08-1.21.28-2.42.29-3.64a11,11,0,0,1,.93-3.54,7,7,0,0,1,1.56-2.64A17.93,17.93,0,0,0,36.76,42,18.09,18.09,0,0,1,38,40.65c.39-.41.78-.83,1.19-1.23a21.86,21.86,0,0,1,1.85-1.75,24.18,24.18,0,0,1,3.08-2.14A3.3,3.3,0,0,1,46.68,35a.68.68,0,0,0,.42,0c.59-.18,1.17-.4,1.76-.58a2.32,2.32,0,0,1,.65-.1l4.42,0a21.49,21.49,0,0,1,2.41.06c.75.09,1.48.35,2.23.51a5.82,5.82,0,0,1,.85.09c.76.3,1.5.65,2.25,1a9,9,0,0,1,1.29.62,6.52,6.52,0,0,1,1.14,1,7.55,7.55,0,0,1,.6.77,2,2,0,0,0,.74.59A4.17,4.17,0,0,1,66.82,40a26.49,26.49,0,0,1,1.65,2.38c.2.32.29.71.49,1a15.73,15.73,0,0,1,1.45,4,14.64,14.64,0,0,1,.63,3,16.57,16.57,0,0,1,0,5A12.1,12.1,0,0,0,71,58.29a5.81,5.81,0,0,1-.17,2.11,11.07,11.07,0,0,0-.24,1.42,6,6,0,0,1-.42,1.09,29,29,0,0,0-1.39,2.72,6.69,6.69,0,0,1-2,2.51c-.69.61-1.43,1.17-2.15,1.75"></path><path class="cls-1" d="M109,32.89H121.1a22.29,22.29,0,0,1,4.63.49A12.41,12.41,0,0,1,129.94,35a9.22,9.22,0,0,1,3,3.17,9.83,9.83,0,0,1,1.17,5,8.49,8.49,0,0,1-2,5.58A9.12,9.12,0,0,1,127,51.93v.12a10.65,10.65,0,0,1,6.54,3.06,9.53,9.53,0,0,1,2.59,7.06,10.07,10.07,0,0,1-1.05,4.6,10.22,10.22,0,0,1-3,3.55,14.5,14.5,0,0,1-4.74,2.26,22.87,22.87,0,0,1-6.27.8H109Zm4.11,17.73h8.29a13.42,13.42,0,0,0,3-.35,8.18,8.18,0,0,0,2.78-1.17,6.23,6.23,0,0,0,2-2.2,6.83,6.83,0,0,0,.77-3.37,6.54,6.54,0,0,0-.77-3.29,6.38,6.38,0,0,0-2.09-2.2,8.9,8.9,0,0,0-3.09-1.23,18.18,18.18,0,0,0-3.77-.38h-7.15Zm0,19.21h7.66a20.24,20.24,0,0,0,4.26-.43A10.73,10.73,0,0,0,128.62,68a7.33,7.33,0,0,0,2.43-2.46,6.89,6.89,0,0,0,.92-3.63,6.92,6.92,0,0,0-2.72-6c-1.81-1.31-4.38-2-7.69-2h-8.41Z"></path><path class="cls-1" d="M149.52,73.38H145.4V32.89h11.9a25.13,25.13,0,0,1,5.51.57,12.77,12.77,0,0,1,4.41,1.86,8.77,8.77,0,0,1,2.89,3.35,11.25,11.25,0,0,1,1,5,9.91,9.91,0,0,1-.8,4.06,9.77,9.77,0,0,1-2.17,3.17,10.4,10.4,0,0,1-3.26,2.15,14.57,14.57,0,0,1-4.12,1l11.84,19.27h-5L156.38,54.45h-6.86Zm0-22.48h7.15c3.31,0,5.87-.6,7.66-1.8A6.07,6.07,0,0,0,167,43.7a6.91,6.91,0,0,0-.75-3.37,6.07,6.07,0,0,0-2.06-2.24,9.19,9.19,0,0,0-3.2-1.25,19.85,19.85,0,0,0-4.17-.41h-7.32Z"></path><path class="cls-1" d="M179.37,73.38h-4.52l17.5-40.49h4l17.39,40.49h-4.58L204.7,62.74H183.77ZM185.32,59h17.84l-8.92-21.51Z"></path><path class="cls-1" d="M217.18,32.89h13.44a23.93,23.93,0,0,1,7.57,1.26,21,21,0,0,1,6.86,3.8A19.3,19.3,0,0,1,250,44.3a19.62,19.62,0,0,1,1.89,8.83,19,19,0,0,1-6.84,15.19,21,21,0,0,1-6.86,3.8,23.93,23.93,0,0,1-7.57,1.26H217.18Zm4.11,36.83h8.18a20.56,20.56,0,0,0,8-1.43,16.62,16.62,0,0,0,5.63-3.75,15.25,15.25,0,0,0,3.35-5.29,17.4,17.4,0,0,0,0-12.23,15.25,15.25,0,0,0-3.35-5.29A16.62,16.62,0,0,0,237.45,38a20.56,20.56,0,0,0-8-1.43h-8.18Z"></path><polygon class="cls-1" points="264.58 73.38 260.46 73.38 260.46 32.89 284.88 32.89 284.88 36.55 264.58 36.55 264.58 50.56 283.45 50.56 283.45 54.22 264.58 54.22 264.58 73.38"></polygon><path class="cls-1" d="M332.63,53.14a22.27,22.27,0,0,1-1.6,8.51,20.13,20.13,0,0,1-11.12,11.16,22.75,22.75,0,0,1-16.76,0,20.48,20.48,0,0,1-6.69-4.44A20.18,20.18,0,0,1,292,61.65a23.48,23.48,0,0,1,0-17,20.24,20.24,0,0,1,4.43-6.71,20.48,20.48,0,0,1,6.69-4.44,22.75,22.75,0,0,1,16.76,0A20.15,20.15,0,0,1,331,44.61a22.38,22.38,0,0,1,1.6,8.53m-4.35,0a19.86,19.86,0,0,0-1.14-6.73,16.84,16.84,0,0,0-3.32-5.63A15.94,15.94,0,0,0,318.53,37a17.87,17.87,0,0,0-14,0,15.94,15.94,0,0,0-5.29,3.85,16.82,16.82,0,0,0-3.31,5.63,20.3,20.3,0,0,0,0,13.47,16.35,16.35,0,0,0,3.31,5.59,16,16,0,0,0,5.29,3.83,17.87,17.87,0,0,0,14,0,16,16,0,0,0,5.29-3.83,16.37,16.37,0,0,0,3.32-5.59,19.92,19.92,0,0,0,1.14-6.74"></path><path class="cls-1" d="M345.32,73.38H341.2V32.89h11.9a25.29,25.29,0,0,1,5.52.57,12.8,12.8,0,0,1,4.4,1.86,8.77,8.77,0,0,1,2.89,3.35,11.24,11.24,0,0,1,1,5,10.07,10.07,0,0,1-.8,4.06A10,10,0,0,1,364,50.93a10.4,10.4,0,0,1-3.26,2.15,14.5,14.5,0,0,1-4.11,1l11.83,19.27h-5L352.18,54.45h-6.86Zm0-22.48h7.15q5,0,7.66-1.8a6.07,6.07,0,0,0,2.69-5.4,7,7,0,0,0-.74-3.37A6.24,6.24,0,0,0,360,38.09a9.35,9.35,0,0,0-3.2-1.25,20,20,0,0,0-4.18-.41h-7.32Z"></path><path class="cls-1" d="M375.46,32.89H388.9a23.93,23.93,0,0,1,7.57,1.26,21.23,21.23,0,0,1,6.87,3.8,19.41,19.41,0,0,1,4.94,6.35,19.62,19.62,0,0,1,1.89,8.83,19,19,0,0,1-6.83,15.19,21.23,21.23,0,0,1-6.87,3.8,23.93,23.93,0,0,1-7.57,1.26H375.46Zm4.12,36.83h8.17a20.56,20.56,0,0,0,8-1.43,16.53,16.53,0,0,0,5.63-3.75,15.25,15.25,0,0,0,3.35-5.29,17.4,17.4,0,0,0,0-12.23,15.25,15.25,0,0,0-3.35-5.29A16.53,16.53,0,0,0,395.73,38a20.56,20.56,0,0,0-8-1.43h-8.17Z"></path><polygon class="cls-1" points="433.04 32.89 437.16 32.89 437.16 50.45 459.23 50.45 459.23 32.89 463.35 32.89 463.35 73.38 459.23 73.38 459.23 54.22 437.16 54.22 437.16 73.38 433.04 73.38 433.04 32.89"></polygon><rect class="cls-1" x="474.1" y="32.89" width="4.12" height="40.49"></rect><polygon class="cls-1" points="493.08 69.72 511.95 69.72 511.95 73.38 488.96 73.38 488.96 32.89 493.08 32.89 493.08 69.72"></polygon><polygon class="cls-1" points="522.25 69.72 541.12 69.72 541.12 73.38 518.13 73.38 518.13 32.89 522.25 32.89 522.25 69.72"></polygon><path class="cls-1" d="M108.7,98.88V82.68h2v16.2Z"></path><path class="cls-1" d="M135.6,98.88h-2V92.22a5.1,5.1,0,0,0-.58-2.78,2,2,0,0,0-1.77-.87,3.36,3.36,0,0,0-1.23.24,4.92,4.92,0,0,0-1.16.65,4.25,4.25,0,0,0-1,1,4.35,4.35,0,0,0-.62,1.26v7.18h-2V87h1.83v2.56a5.19,5.19,0,0,1,2-2,5.84,5.84,0,0,1,2.91-.75,3.49,3.49,0,0,1,1.71.37,2.92,2.92,0,0,1,1.1,1,4.68,4.68,0,0,1,.58,1.59,10.29,10.29,0,0,1,.17,2Z"></path><path class="cls-1" d="M152.88,98.88,148.18,87h2.07L154,97.13,157.81,87h1.91L155,98.88Z"></path><path class="cls-1" d="M177.52,99.11a6,6,0,0,1-4.38-1.82,6.21,6.21,0,0,1-1.24-2,6.34,6.34,0,0,1-.45-2.38,6.25,6.25,0,0,1,.45-2.37,6.12,6.12,0,0,1,1.25-2,5.94,5.94,0,0,1,1.93-1.33,6.05,6.05,0,0,1,2.47-.49,5.8,5.8,0,0,1,2.45.5,5.71,5.71,0,0,1,1.88,1.33,6,6,0,0,1,1.2,1.94,6.46,6.46,0,0,1,.42,2.3c0,.16,0,.32,0,.45s0,.25,0,.32h-9.88a4.39,4.39,0,0,0,.41,1.62,4.1,4.1,0,0,0,2.13,2.08,3.68,3.68,0,0,0,1.47.3,3.91,3.91,0,0,0,1.08-.15,4.69,4.69,0,0,0,1-.4,3.49,3.49,0,0,0,.81-.62,2.46,2.46,0,0,0,.53-.82l1.74.48a4.42,4.42,0,0,1-.81,1.21,5.85,5.85,0,0,1-1.19,1,6.4,6.4,0,0,1-1.49.62A6.11,6.11,0,0,1,177.52,99.11Zm4.09-7a4.51,4.51,0,0,0-.42-1.56,4.32,4.32,0,0,0-.89-1.22,4.05,4.05,0,0,0-4.26-.79,3.68,3.68,0,0,0-1.24.8,4,4,0,0,0-.87,1.22,4.6,4.6,0,0,0-.4,1.55Z"></path><path class="cls-1" d="M200.87,99.11a9.44,9.44,0,0,1-2.83-.44,7.09,7.09,0,0,1-2.4-1.29l.87-1.35a8.67,8.67,0,0,0,2.1,1.2,6.1,6.1,0,0,0,2.21.4,3.69,3.69,0,0,0,2.07-.51,1.66,1.66,0,0,0,.76-1.45,1.26,1.26,0,0,0-.2-.74,1.66,1.66,0,0,0-.62-.54,4.89,4.89,0,0,0-1.05-.41l-1.48-.39c-.72-.18-1.33-.36-1.85-.52a5.09,5.09,0,0,1-1.28-.6,2.1,2.1,0,0,1-.73-.82,2.77,2.77,0,0,1-.23-1.19,3.38,3.38,0,0,1,.36-1.58,3.33,3.33,0,0,1,1-1.17A4.35,4.35,0,0,1,199,87a6.4,6.4,0,0,1,1.79-.24,7.12,7.12,0,0,1,2.51.43,6.25,6.25,0,0,1,2,1.14l-.91,1.21a5.15,5.15,0,0,0-1.69-1,5.7,5.7,0,0,0-1.92-.33,3.43,3.43,0,0,0-1.86.47,1.61,1.61,0,0,0-.76,1.49,1.47,1.47,0,0,0,.15.69,1.24,1.24,0,0,0,.49.47,3.88,3.88,0,0,0,.88.37c.35.11.78.22,1.29.34.79.18,1.47.37,2.06.56a6.23,6.23,0,0,1,1.46.67,2.4,2.4,0,0,1,1.15,2.19,3.15,3.15,0,0,1-1.27,2.65A5.52,5.52,0,0,1,200.87,99.11Z"></path><path class="cls-1" d="M225.08,98.29l-.48.22c-.2.08-.42.17-.67.25a6.15,6.15,0,0,1-.82.2,4.73,4.73,0,0,1-.93.08,3,3,0,0,1-1.89-.6,2.21,2.21,0,0,1-.8-1.88v-8h-1.62V87h1.62V83h2v4h2.67v1.58H221.5v7.39a1.25,1.25,0,0,0,.43,1,1.45,1.45,0,0,0,.92.3,2.92,2.92,0,0,0,1.08-.2,4.06,4.06,0,0,0,.67-.31Z"></path><path class="cls-1" d="M237.91,84.74V82.23h2v2.51Zm0,14.14V87h2V98.88Z"></path><path class="cls-1" d="M258.86,99a5,5,0,0,1-2.23-.5,5.38,5.38,0,0,1-1.75-1.35,6.12,6.12,0,0,1-1.12-1.94,6.52,6.52,0,0,1-.4-2.28,7,7,0,0,1,.4-2.38,6.1,6.1,0,0,1,1.12-2,5.32,5.32,0,0,1,1.75-1.33,5.08,5.08,0,0,1,2.25-.49,4.56,4.56,0,0,1,2.6.73,6.52,6.52,0,0,1,1.85,1.85V87h1.78V98.75a5,5,0,0,1-.48,2.25,4.82,4.82,0,0,1-1.3,1.63,5.8,5.8,0,0,1-1.93,1A7.92,7.92,0,0,1,259,104a6.85,6.85,0,0,1-3.3-.69,6.18,6.18,0,0,1-2.11-1.93l1.16-1a4.43,4.43,0,0,0,1.83,1.58,5.59,5.59,0,0,0,2.42.52,5,5,0,0,0,1.56-.23,3.61,3.61,0,0,0,1.29-.68,3.32,3.32,0,0,0,.88-1.14,3.72,3.72,0,0,0,.33-1.62v-2.1a5.48,5.48,0,0,1-.81,1,4.62,4.62,0,0,1-1,.75,4.35,4.35,0,0,1-1.16.47A4.82,4.82,0,0,1,258.86,99Zm.61-1.64a3.4,3.4,0,0,0,1.23-.23,4.51,4.51,0,0,0,1.1-.6,4,4,0,0,0,.84-.86,2.81,2.81,0,0,0,.46-1V91.29a4.44,4.44,0,0,0-.65-1.12,5,5,0,0,0-.9-.88,4,4,0,0,0-1.09-.58,3.4,3.4,0,0,0-1.17-.21,3.36,3.36,0,0,0-1.63.39,3.79,3.79,0,0,0-1.22,1,4.61,4.61,0,0,0-.78,1.45,5.11,5.11,0,0,0-.27,1.63,4.42,4.42,0,0,0,.32,1.69,4.58,4.58,0,0,0,.86,1.39,4.28,4.28,0,0,0,1.29.94A3.65,3.65,0,0,0,259.47,97.38Z"></path><path class="cls-1" d="M282.36,99.11a4.25,4.25,0,0,1-1.57-.28,3.84,3.84,0,0,1-1.27-.79,3.6,3.6,0,0,1-.84-1.17,3.44,3.44,0,0,1-.31-1.48,3.13,3.13,0,0,1,.36-1.49,3.45,3.45,0,0,1,1-1.15,5.52,5.52,0,0,1,1.6-.76,7.15,7.15,0,0,1,2-.27,9.5,9.5,0,0,1,1.75.16,8.56,8.56,0,0,1,1.58.43v-1a2.87,2.87,0,0,0-3.15-3.12,6.67,6.67,0,0,0-3.79,1.39l-.66-1.3a8.2,8.2,0,0,1,4.63-1.55A5.13,5.13,0,0,1,287.42,88a4.69,4.69,0,0,1,1.31,3.54v4.86c0,.47.21.72.64.73v1.73a4.88,4.88,0,0,1-.53.07,2.9,2.9,0,0,1-.43,0,1.27,1.27,0,0,1-1-.36,1.38,1.38,0,0,1-.42-.85l-.05-.85a5,5,0,0,1-2,1.63A6.06,6.06,0,0,1,282.36,99.11Zm.53-1.5a5.05,5.05,0,0,0,2-.4,3.33,3.33,0,0,0,1.41-1.06,1.31,1.31,0,0,0,.43-.89V93.5a8.29,8.29,0,0,0-3-.57,4.27,4.27,0,0,0-2.45.64,1.93,1.93,0,0,0-1,1.66,2.26,2.26,0,0,0,.2.94,2.15,2.15,0,0,0,.55.75,2.39,2.39,0,0,0,.83.5A2.7,2.7,0,0,0,282.89,97.61Z"></path><path class="cls-1" d="M302.1,92.91a6.53,6.53,0,0,1,.43-2.38,5.86,5.86,0,0,1,3.14-3.27,6,6,0,0,1,2.48-.49,5.84,5.84,0,0,1,3.07.78,5.11,5.11,0,0,1,1.95,2.12l-2,.61A3.36,3.36,0,0,0,309.93,89a3.67,3.67,0,0,0-1.83-.47,3.72,3.72,0,0,0-1.55.33,3.5,3.5,0,0,0-1.25.93,4.41,4.41,0,0,0-.84,1.39,5,5,0,0,0-.31,1.76,4.81,4.81,0,0,0,.32,1.75,4.74,4.74,0,0,0,.86,1.43,4,4,0,0,0,1.25,1,3.67,3.67,0,0,0,2.58.19,3.8,3.8,0,0,0,.94-.4,3.58,3.58,0,0,0,.74-.58,2,2,0,0,0,.46-.72l2,.59a4.08,4.08,0,0,1-.77,1.21,4.59,4.59,0,0,1-1.15.94,6.06,6.06,0,0,1-1.47.61,6,6,0,0,1-1.7.23,5.82,5.82,0,0,1-2.46-.5,5.75,5.75,0,0,1-1.92-1.35,6,6,0,0,1-1.24-2A6.37,6.37,0,0,1,302.1,92.91Z"></path><path class="cls-1" d="M326.49,84.74V82.23h2v2.51Zm0,14.14V87h2V98.88Z"></path><path class="cls-1" d="M347.9,99.11a5.84,5.84,0,0,1-4.35-1.85,6.06,6.06,0,0,1-1.22-2A6.4,6.4,0,0,1,341.9,93a6.48,6.48,0,0,1,.44-2.37,6.11,6.11,0,0,1,1.24-2,5.62,5.62,0,0,1,1.89-1.35,6,6,0,0,1,6.78,1.35A6.38,6.38,0,0,1,353.93,93a6.41,6.41,0,0,1-.44,2.35,5.92,5.92,0,0,1-1.23,2,5.81,5.81,0,0,1-1.91,1.35A5.74,5.74,0,0,1,347.9,99.11ZM344,93a4.89,4.89,0,0,0,.31,1.74,4.61,4.61,0,0,0,.84,1.39,4,4,0,0,0,1.26.94,3.66,3.66,0,0,0,3.08,0,4.19,4.19,0,0,0,1.27-1,4.4,4.4,0,0,0,.85-1.42,4.76,4.76,0,0,0,.31-1.74,4.69,4.69,0,0,0-.31-1.72,4.4,4.4,0,0,0-.85-1.42,4.19,4.19,0,0,0-1.27-1,3.65,3.65,0,0,0-1.54-.34,3.39,3.39,0,0,0-1.54.36,4,4,0,0,0-1.26,1,4.89,4.89,0,0,0-.84,1.42A5,5,0,0,0,344,93Zm4.29-8-1.32-.46,1.32-2.3h2Z"></path><path class="cls-1" d="M377.66,98.88h-2V92.22a5.1,5.1,0,0,0-.58-2.78,2,2,0,0,0-1.77-.87,3.36,3.36,0,0,0-1.23.24,5.19,5.19,0,0,0-1.17.65,4.7,4.7,0,0,0-1,1,4.33,4.33,0,0,0-.61,1.26v7.18h-2V87h1.83v2.56a5.19,5.19,0,0,1,2-2,5.84,5.84,0,0,1,2.91-.75,3.55,3.55,0,0,1,1.71.37,3,3,0,0,1,1.1,1,4.91,4.91,0,0,1,.58,1.59,11.15,11.15,0,0,1,.17,2Z"></path><path class="cls-1" d="M407.73,90.67a8.76,8.76,0,0,1,.52-2.91,8,8,0,0,1,1.5-2.6,7.72,7.72,0,0,1,2.43-1.86,7.34,7.34,0,0,1,3.27-.71,6.88,6.88,0,0,1,3.72,1,6.15,6.15,0,0,1,2.3,2.56l-1.62,1.05a4.44,4.44,0,0,0-.88-1.3,4.69,4.69,0,0,0-1.11-.85,4.94,4.94,0,0,0-1.25-.45,6,6,0,0,0-1.25-.14A5,5,0,0,0,413,85a5.47,5.47,0,0,0-1.74,1.46,6.25,6.25,0,0,0-1.06,2,7.42,7.42,0,0,0-.36,2.27,7.05,7.05,0,0,0,.42,2.43,6.65,6.65,0,0,0,1.18,2,5.56,5.56,0,0,0,1.78,1.42,4.83,4.83,0,0,0,2.24.52,5.52,5.52,0,0,0,1.31-.16A4.45,4.45,0,0,0,418,96.5a5.64,5.64,0,0,0,1.15-.89,4.4,4.4,0,0,0,.88-1.29l1.71.94a5.18,5.18,0,0,1-1.08,1.61A7,7,0,0,1,419.11,98a7.91,7.91,0,0,1-1.86.73,7.56,7.56,0,0,1-1.92.25,6.39,6.39,0,0,1-3.05-.73,8.28,8.28,0,0,1-2.41-1.9,9,9,0,0,1-1.58-2.67A8.75,8.75,0,0,1,407.73,90.67Z"></path><path class="cls-1" d="M435,82.23h2V95.8a1.43,1.43,0,0,0,.35,1,1.31,1.31,0,0,0,1,.38,2.92,2.92,0,0,0,.6-.08,6,6,0,0,0,.64-.19l.31,1.62a7,7,0,0,1-1.18.34,6.33,6.33,0,0,1-1.21.13,2.51,2.51,0,0,1-1.84-.66,2.46,2.46,0,0,1-.67-1.85Z"></path><path class="cls-1" d="M452.46,98.88V87h2V98.88ZM453.81,85l-1.32-.46,1.32-2.3h2Z"></path><path class="cls-1" d="M479,98.88h-2V92.22a5.08,5.08,0,0,0-.59-2.78,2,2,0,0,0-1.77-.87,3.36,3.36,0,0,0-1.23.24,4.92,4.92,0,0,0-1.16.65,4.25,4.25,0,0,0-1,1,4.35,4.35,0,0,0-.62,1.26v7.18h-2V87h1.82v2.56a5.19,5.19,0,0,1,2-2,5.84,5.84,0,0,1,2.91-.75,3.49,3.49,0,0,1,1.71.37,2.92,2.92,0,0,1,1.1,1,4.68,4.68,0,0,1,.58,1.59,10.29,10.29,0,0,1,.17,2Z"></path><path class="cls-1" d="M493.08,84.74V82.23h2v2.51Zm0,14.14V87h2V98.88Z"></path><path class="cls-1" d="M508.49,92.91a6.53,6.53,0,0,1,.43-2.38,6,6,0,0,1,1.23-2,5.88,5.88,0,0,1,1.91-1.32,6,6,0,0,1,2.47-.49,5.81,5.81,0,0,1,3.07.78,5.11,5.11,0,0,1,1.95,2.12l-2,.61A3.23,3.23,0,0,0,516.31,89a3.6,3.6,0,0,0-1.82-.47,3.69,3.69,0,0,0-1.55.33,3.63,3.63,0,0,0-1.26.93,4.39,4.39,0,0,0-.83,1.39,4.75,4.75,0,0,0-.31,1.76,4.81,4.81,0,0,0,.32,1.75,4.55,4.55,0,0,0,.86,1.43A3.88,3.88,0,0,0,513,97a3.67,3.67,0,0,0,2.58.19,4.16,4.16,0,0,0,.94-.4,3.87,3.87,0,0,0,.74-.58,2,2,0,0,0,.45-.72l2,.59a4.29,4.29,0,0,1-.77,1.21,4.78,4.78,0,0,1-1.15.94,6.06,6.06,0,0,1-1.47.61,6,6,0,0,1-1.7.23,5.9,5.9,0,0,1-2.47-.5,5.81,5.81,0,0,1-1.91-1.35,6,6,0,0,1-1.25-2A6.57,6.57,0,0,1,508.49,92.91Z"></path><path class="cls-1" d="M535.94,99.11a4.25,4.25,0,0,1-1.57-.28A3.84,3.84,0,0,1,533.1,98a3.6,3.6,0,0,1-.84-1.17,3.44,3.44,0,0,1-.31-1.48,3.13,3.13,0,0,1,.36-1.49,3.34,3.34,0,0,1,1-1.15A5.52,5.52,0,0,1,535,92a7.15,7.15,0,0,1,2-.27,9.5,9.5,0,0,1,1.75.16,8.56,8.56,0,0,1,1.58.43v-1a3.16,3.16,0,0,0-.82-2.29,3.12,3.12,0,0,0-2.33-.83,6.65,6.65,0,0,0-3.79,1.39l-.66-1.3a8.2,8.2,0,0,1,4.63-1.55A5.13,5.13,0,0,1,541,88a4.69,4.69,0,0,1,1.31,3.54v4.86c0,.47.21.72.64.73v1.73a4.88,4.88,0,0,1-.53.07,3,3,0,0,1-.43,0,1.27,1.27,0,0,1-1-.36,1.38,1.38,0,0,1-.42-.85l0-.85a5,5,0,0,1-2,1.63A6.06,6.06,0,0,1,535.94,99.11Zm.53-1.5a5.05,5.05,0,0,0,2-.4,3.33,3.33,0,0,0,1.41-1.06,1.31,1.31,0,0,0,.43-.89V93.5a8.29,8.29,0,0,0-3-.57,4.27,4.27,0,0,0-2.45.64,1.93,1.93,0,0,0-.95,1.66,2.29,2.29,0,0,0,.74,1.69,2.53,2.53,0,0,0,.84.5A2.7,2.7,0,0,0,536.47,97.61Z"></path></svg>